<svg xmlns="http://www.w3.org/2000/svg" width="24" height="24" viewBox="0 0 24 24" fill="none"><path d="M11.2 2.04a9.993 9.993 0 0 0-9.038 8.252c-.643 3.731.879 7.523 3.918 9.754a10.003 10.003 0 0 0 7.88 1.75c1.03-.202 2.343-.688 2.697-.999.527-.463.416-1.285-.217-1.61-.317-.162-.613-.141-1.1.08-2.211 1.004-4.674.975-6.84-.081-1.595-.777-2.929-2.109-3.679-3.672-.818-1.706-1.031-3.587-.604-5.334.593-2.425 2.154-4.353 4.386-5.415 1.779-.847 3.872-.998 5.862-.423a7.728 7.728 0 0 1 4.954 4.356c.4.927.578 1.716.609 2.702.057 1.85-.48 3.194-1.477 3.694-.36.18-.75.282-.946.247-.334-.061-.576-.347-.627-.743-.014-.103.087-1.277.239-2.785.145-1.433.263-2.707.263-2.831a.855.855 0 0 0-.241-.637.994.994 0 0 0-.681-.335.96.96 0 0 0-.8.341l-.136.161-.241-.223c-.985-.913-2.492-1.401-3.861-1.25-2.392.263-4.231 2.085-4.48 4.439-.22 2.082.882 4.06 2.781 4.995.343.168.826.344 1.069.388.095.018.15.05.15.088 0 .053.107.058.83.041.912-.023 1.275-.077 1.843-.276a4.736 4.736 0 0 0 1.224-.641c.175-.126.333-.219.351-.208a.82.82 0 0 1 .118.188c.144.283.69.789 1.054.976.687.353 1.585.388 2.427.096 1.644-.571 2.676-1.956 3.042-4.085.118-.681.126-2.082.017-2.74-.358-2.157-1.291-3.978-2.798-5.458-1.536-1.51-3.492-2.453-5.688-2.742a13.715 13.715 0 0 0-2.26-.06m1.64 7.073c.368.112.542.192.845.388 1.032.666 1.563 1.905 1.321 3.076a2.993 2.993 0 0 1-1.626 2.105c-.484.238-.754.297-1.36.297-.432 0-.571-.016-.819-.094-1.536-.478-2.437-1.929-2.145-3.451.115-.594.351-1.04.798-1.505a3.04 3.04 0 0 1 1.547-.869c.355-.081 1.09-.053 1.439.053" fill="#10161F" fill-rule="evenodd"/></svg>