<svg xmlns="http://www.w3.org/2000/svg" width="24" height="24" viewBox="0 0 24 24" fill="none"><path d="M9.5 2.545c-2.157.124-3.278.692-3.917 1.986-.569 1.154-.597 1.609-.572 9.409.015 4.685.026 5.484.08 5.76.161.838.473 1.31 1.055 1.599.197.098.295.119.622.133.804.035 1.183-.161 3.196-1.656 1.68-1.248 1.855-1.345 2.229-1.234.243.072.608.316 1.843 1.234 1.56 1.158 1.968 1.416 2.504 1.581.988.305 1.908-.162 2.24-1.137.192-.566.19-.494.208-6.26.025-7.816-.002-8.266-.573-9.429-.552-1.126-1.547-1.732-3.175-1.934-.355-.044-5.123-.087-5.74-.052m5.231 2.017c1.09.087 1.651.333 1.908.836.108.212.23.671.286 1.082.033.242.052 2.023.064 6.16.016 5.471.004 6.72-.066 6.72-.057 0-.717-.462-1.683-1.179-1.294-.96-1.591-1.161-2.021-1.366-.45-.214-.781-.294-1.219-.294-.438 0-.769.08-1.219.294-.43.205-.727.406-2.021 1.366-.954.708-1.626 1.179-1.681 1.179-.015 0-.039-.148-.053-.33-.042-.546-.029-11.183.015-11.946.074-1.267.26-1.825.71-2.123.44-.292.987-.394 2.349-.441 1.121-.039 3.95-.013 4.631.042" fill="#10161F" fill-rule="evenodd"/></svg>