<svg xmlns="http://www.w3.org/2000/svg" width="24" height="24" viewBox="0 0 24 24" fill="none"><path d="M20.239 5.214c-.1.027-.397.172-.66.323-3.769 2.156-6.552 4.587-8.958 7.823-.418.562-1.212 1.739-1.441 2.134l-.112.194-.104-.134c-.536-.691-1.843-2.06-2.644-2.771-.871-.774-2.093-1.717-2.42-1.867-.338-.156-.845-.051-1.108.229a1.013 1.013 0 0 0-.103 1.242c.05.075.388.358.751.63.808.605 1.134.876 1.88 1.565.963.89 1.785 1.809 2.665 2.978.272.363.556.701.629.751a.976.976 0 0 0 .966.074c.274-.13.365-.239.731-.885 1.674-2.95 3.645-5.33 6.149-7.424 1.116-.933 2.733-2.037 4.097-2.796.527-.294.696-.429.809-.651.385-.756-.316-1.636-1.127-1.415" fill="#10161F" fill-rule="evenodd"/></svg>