<svg xmlns="http://www.w3.org/2000/svg" width="24" height="24" viewBox="0 0 24 24" fill="none"><path d="M6.619 4.041c-.768.062-1.235.185-1.83.484-.516.26-.898.536-1.313.951-.754.754-1.22 1.647-1.386 2.654-.058.355-.067.768-.069 3.07l-.001 2.66.094.36c.2.766.667 1.495 1.261 1.965.382.302.935.585 1.331.68l.282.068.024.623c.035.931.203 1.367.644 1.671.631.435 1.262.321 2.246-.407l.297-.22-.183-.268c-.794-1.16-1.15-2.726-1.02-4.485.079-1.065.256-1.76.647-2.541.823-1.643 2.299-2.771 4.183-3.195.385-.087.465-.089 3.434-.102 1.672-.007 3.171.003 3.33.022.279.033.29.031.29-.049 0-.174-.172-.697-.357-1.086a4.762 4.762 0 0 0-.999-1.42c-.74-.739-1.635-1.213-2.615-1.383-.317-.055-.896-.065-4.129-.074-2.068-.006-3.941.004-4.161.022m5.722 6.021c-1.46.245-2.653 1.269-3.138 2.694-.285.839-.285 2.653.001 3.488.356 1.041 1.052 1.844 2.016 2.325.7.35 1.165.431 2.469.431h.948l.892.742c.49.409.996.813 1.125.9.545.366 1.158.374 1.691.02.409-.271.599-.657.641-1.303l.026-.399.164-.042a3.66 3.66 0 0 0 1.224-.521c.691-.447 1.224-1.181 1.469-2.027.096-.328.103-.419.121-1.457.02-1.199-.021-1.653-.195-2.161-.492-1.439-1.683-2.451-3.164-2.692-.511-.082-5.795-.081-6.29.002" fill="#10161F" fill-rule="evenodd"/></svg>