<svg xmlns="http://www.w3.org/2000/svg" width="24" height="24" viewBox="0 0 24 24" fill="none"><path d="M6.4 4.043c-2.015.233-3.73 1.736-4.239 3.717-.147.574-.168 1.066-.151 3.66.017 2.664.014 2.624.234 3.22.404 1.092 1.516 2.058 2.602 2.26l.146.027.015.727c.014.695.02.736.125.951.163.335.392.572.699.724.226.111.319.133.608.144.394.016.687-.071.97-.287.367-.28.485-.829.267-1.246-.114-.217-.382-.451-.558-.486l-.11-.022-.015-.706c-.013-.663-.02-.72-.119-.932a1.344 1.344 0 0 0-1.117-.777c-.607-.053-.931-.186-1.26-.514a1.62 1.62 0 0 1-.455-.823c-.035-.162-.044-.889-.034-2.74.014-2.514.014-2.521.107-2.8A3.141 3.141 0 0 1 6.14 6.114l.28-.094 3.9-.012c2.715-.008 3.979.002 4.16.033.858.145 1.56.624 2.11 1.439.309.457.496.567.933.551.256-.009.334-.03.499-.132.288-.178.433-.434.451-.795.013-.261.003-.306-.125-.551-.2-.384-.54-.819-.925-1.183a5.1 5.1 0 0 0-2.363-1.261c-.353-.083-.442-.085-4.36-.092-2.2-.005-4.135.007-4.3.026m4.958 5.018a4.013 4.013 0 0 0-2.894 2.099C8.064 11.942 8 12.33 8 14s.064 2.058.464 2.84a3.978 3.978 0 0 0 1.696 1.696c.804.411 1.147.463 3.051.464h1.43l1.01.842c.575.48 1.104.888 1.229.95.195.095.266.108.62.108.361 0 .423-.011.638-.117.315-.154.56-.407.713-.735.108-.229.129-.328.147-.684l.022-.416.28-.068c1.048-.251 1.974-1.038 2.402-2.04.257-.604.27-.711.287-2.44.021-2.073-.025-2.404-.453-3.24-.46-.899-1.307-1.622-2.291-1.957-.566-.192-.795-.203-4.285-.199-2.502.003-3.339.016-3.602.057m7.134 1.999c.36.093.626.25.912.536.296.295.448.561.536.933.081.346.086 2.99.006 3.291a1.423 1.423 0 0 1-.433.726c-.334.323-.459.37-1.307.493a1.376 1.376 0 0 0-1.165 1.093l-.048.232-.206-.174c-.954-.803-1.101-.91-1.447-1.053l-.28-.115-1.76-.023c-1.701-.021-1.767-.025-1.984-.111a2.087 2.087 0 0 1-1.256-1.396c-.087-.331-.087-2.653 0-2.984.093-.36.25-.626.536-.912.28-.28.55-.442.895-.534.32-.087 6.67-.089 7.001-.002" fill="#10161F" fill-rule="evenodd"/></svg>