<svg xmlns="http://www.w3.org/2000/svg" width="24" height="24" viewBox="0 0 24 24" fill="none"><path d="M10.48 3.086c-2.843.139-5.566 1.753-7.088 4.202a9.697 9.697 0 0 0-1.166 2.892c-.162.776-.199 1.228-.173 2.158.03 1.123.175 1.893.536 2.859l.142.379-.045.722a24.953 24.953 0 0 0-.046 1.342c.001.992.173 1.531.648 2.025.294.306.657.504 1.137.62.336.08.41.083 1.395.053 1.755-.053 1.642-.061 2.26.159.946.336 1.971.504 2.283.373.199-.084.426-.292.528-.486.065-.123.087-.234.087-.444 0-.331-.088-.529-.33-.748-.178-.161-.307-.211-.708-.273a7.809 7.809 0 0 1-1.44-.381c-.834-.3-.701-.291-2.565-.177-.669.041-1.137.013-1.223-.073-.086-.086-.114-.554-.073-1.223.024-.377.054-.928.067-1.225l.024-.54-.244-.74c-.308-.933-.403-1.391-.441-2.12-.081-1.538.301-2.959 1.132-4.216C7.14 5.257 10.908 4.225 14.1 5.779a6.943 6.943 0 0 1 2.191 1.679c.408.461.738.963 1.038 1.577.268.548.404.728.647.856.228.12.659.121.884.001a.974.974 0 0 0 .54-.891c-.001-.227-.026-.317-.196-.689-.888-1.947-2.531-3.583-4.457-4.443-1.386-.618-2.701-.86-4.267-.783m5.422 7.958c-1.258.133-2.552.768-3.384 1.661-1.646 1.767-1.982 4.363-.833 6.439a5.48 5.48 0 0 0 2.967 2.531c.632.223 1.089.298 1.828.301.721.003 1.105-.053 1.695-.247.309-.102.365-.108 1.145-.108.74-.001.842-.009 1.047-.087a2.022 2.022 0 0 0 1.167-1.167c.078-.205.086-.307.087-1.047.001-.779.007-.836.108-1.145.199-.607.249-.942.249-1.655-.002-1.194-.279-2.122-.921-3.087-1.117-1.678-3.114-2.604-5.155-2.389m1.478 2.074c1.221.318 2.165 1.26 2.507 2.502.072.263.088.423.086.9-.001.558-.007.598-.152 1.06-.226.72-.229.743-.199 1.431l.028.63-.735-.01-.735-.011-.446.149c-.565.189-.934.246-1.414.22a3.509 3.509 0 0 1-3.309-3.309c-.094-1.711 1.082-3.231 2.789-3.605.437-.096 1.116-.078 1.58.043" fill="#10161F" fill-rule="evenodd"/></svg>