<svg xmlns="http://www.w3.org/2000/svg" width="24" height="24" viewBox="0 0 24 24" fill="none"><path d="M11.32 2.027c-.498.036-1.238.156-1.74.281-3.929.981-6.849 4.201-7.466 8.232-.114.748-.124 2.091-.021 2.8.553 3.779 3.003 6.786 6.587 8.084.508.184 1.211.36 1.853.464.717.115 2.101.124 2.807.017 2.014-.305 3.683-1.056 5.18-2.329.388-.331.507-.513.546-.841a.927.927 0 0 0-.205-.705c-.195-.256-.443-.37-.801-.369-.332.001-.431.047-.81.373-1.591 1.366-3.458 2.023-5.55 1.954-.669-.022-.884-.048-1.44-.173a8.081 8.081 0 0 1-4.007-2.267c-1.155-1.211-1.832-2.553-2.142-4.248-.116-.635-.124-1.951-.014-2.54.32-1.73.983-3.063 2.126-4.275a7.977 7.977 0 0 1 7.605-2.265c2.916.697 5.181 2.919 5.913 5.8.072.286.144.608.159.716.024.173.019.192-.042.169a10.93 10.93 0 0 0-.553-.15c-.377-.095-.543-.119-.745-.105a1.09 1.09 0 0 0-.958.638c-.104.21-.122.289-.122.554 0 .261.017.341.11.513.061.112.497.649.97 1.191 1.064 1.222 1.24 1.349 1.86 1.349.354.001.643-.096.901-.3.508-.401.651-.967.654-2.595.003-.949-.016-1.16-.181-2-.347-1.77-1.275-3.552-2.549-4.892-1.255-1.32-3.01-2.348-4.749-2.783-1.046-.261-2.198-.369-3.176-.298m.353 4.036c-.261.08-.533.358-.612.627-.087.293-.089 4.101-.003 4.67.108.702.395 1.351.848 1.913.135.169.766.823 1.4 1.453 1.084 1.076 1.167 1.149 1.371 1.21.27.08.374.08.633.003.279-.083.546-.35.629-.629.077-.259.077-.363-.003-.632-.061-.204-.14-.293-1.332-1.498-.882-.892-1.299-1.342-1.374-1.483-.219-.413-.229-.535-.229-2.76-.001-2.341 0-2.329-.304-2.634-.279-.279-.63-.361-1.024-.24" fill="#10161F" fill-rule="evenodd"/></svg>