<svg xmlns="http://www.w3.org/2000/svg" width="24" height="24" viewBox="0 0 24 24" fill="none"><path d="M9.16 2.545c-1.548.124-2.453.417-3.56 1.153-1.366.909-2.449 2.41-2.838 3.936-.208.813-.222 1.088-.222 4.326 0 3.166.011 3.412.186 4.24.146.69.563 1.612 1.047 2.314.931 1.35 2.513 2.434 4.029 2.759.816.176 1.071.187 4.198.187 3.127 0 3.382-.011 4.198-.187 1.336-.287 2.795-1.2 3.693-2.311.695-.861 1.217-1.917 1.406-2.846.152-.75.163-1.029.163-4.116 0-3.087-.011-3.366-.163-4.116-.199-.975-.793-2.139-1.523-2.982-.882-1.02-2.281-1.885-3.494-2.16-.813-.185-.996-.194-4.04-.203a183.89 183.89 0 0 0-3.08.006m7.788 4.063c.336.158.541.495.543.892.003.566-.417.987-.992.993-.716.007-1.221-.783-.901-1.413.119-.235.226-.349.422-.45.323-.167.605-.174.928-.022m-3.91 1.53c2.036.562 3.296 2.59 2.879 4.636-.375 1.844-1.893 3.136-3.777 3.214-1.858.077-3.501-1.14-4.008-2.971-.098-.354-.11-.464-.11-1.017 0-.551.012-.663.108-1.011.435-1.568 1.634-2.651 3.267-2.951a5.21 5.21 0 0 1 .723-.019c.425.012.621.037.918.119m-1.458 1.909c-.543.104-1.128.563-1.373 1.078-.578 1.214.167 2.637 1.488 2.842a1.99 1.99 0 0 0 2.272-1.662 1.937 1.937 0 0 0-.563-1.709c-.491-.49-1.127-.682-1.824-.549" fill="#10161F" fill-rule="evenodd"/></svg>