<svg xmlns="http://www.w3.org/2000/svg" width="24" height="24" viewBox="0 0 24 24" fill="none"><path d="M13.499 2.04a3.042 3.042 0 0 0-2.374 2.099c-.138.456-.144 1.218-.012 1.681.15.526.426.971.853 1.373l.186.176-.11.325-.109.325-.281-.013c-.837-.038-1.858.24-2.554.698l-.284.186c-.028.018-.21-.106-.46-.316-.342-.286-.413-.364-.408-.45.003-.057.018-.266.034-.464.127-1.634-1.379-2.939-3-2.6a2.502 2.502 0 0 0-1.695 1.302c-.375.762-.375 1.514 0 2.276.538 1.091 1.834 1.614 3.025 1.221l.326-.108.424.351c.313.26.416.368.396.415a15.61 15.61 0 0 0-.159.403c-.512 1.333-.326 2.925.478 4.092l.188.273-.392.468-.391.468-.32-.097c-.27-.081-.404-.096-.86-.097-.459 0-.588.015-.861.098a3.06 3.06 0 0 0-2.014 2.014c-.083.273-.098.403-.098.861 0 .458.015.588.098.861a3.06 3.06 0 0 0 2.014 2.014c.273.083.403.098.861.098.458 0 .588-.015.861-.098a3.06 3.06 0 0 0 2.014-2.014c.137-.454.144-1.219.013-1.674a3.394 3.394 0 0 0-.164-.46l-.075-.147.408-.489c.224-.269.418-.5.432-.513.013-.013.192.039.397.116.591.22.93.279 1.614.279.638 0 1.007-.057 1.483-.23l.251-.091.466.468.467.468-.066.216c-.1.332-.12.844-.046 1.196a2.504 2.504 0 0 0 2.965 1.94 2.527 2.527 0 0 0 1.92-1.92A2.504 2.504 0 0 0 17 16.055a2.767 2.767 0 0 0-1.196.046l-.216.066-.35-.349-.35-.348.238-.322a4.74 4.74 0 0 0 .68-1.358l.09-.31h1.299l.132.25c.076.142.255.373.415.534a2.486 2.486 0 0 0 3.52-.002 2.488 2.488 0 0 0 0-3.524 2.486 2.486 0 0 0-3.52-.002c-.16.161-.339.392-.415.534l-.132.25h-1.299l-.09-.31c-.191-.657-.627-1.384-1.13-1.886-.161-.161-.742-.629-.825-.665a3.12 3.12 0 0 1 .097-.327l.106-.324.263-.028a3.024 3.024 0 0 0 2.558-2.119c.083-.273.098-.403.098-.861 0-.458-.015-.588-.098-.861-.291-.956-1.071-1.734-2.014-2.01-.361-.106-1.029-.149-1.362-.089m1.013 2.107c.63.387.642 1.299.023 1.692a.998.998 0 0 1-1.394-.336c-.107-.174-.121-.232-.121-.5 0-.259.016-.33.111-.492a.955.955 0 0 1 .941-.496.836.836 0 0 1 .44.132M5.724 7.062a.488.488 0 0 1 .198.686.485.485 0 0 1-.844 0 .478.478 0 0 1 .174-.67.453.453 0 0 1 .472-.016m6.596 3.074c.71.248 1.284.822 1.547 1.544.098.269.109.354.109.82 0 .466-.011.551-.109.82a2.589 2.589 0 0 1-1.547 1.548c-.268.097-.355.108-.82.108-.466 0-.551-.011-.82-.109a2.567 2.567 0 0 1-1.544-1.547 2.755 2.755 0 0 1-.082-1.35c.201-.943.994-1.727 1.949-1.929.328-.069.983-.022 1.317.095m7.404 1.926A.56.56 0 0 1 20 12.5c0 .248-.252.5-.5.5-.244 0-.5-.252-.5-.492 0-.251.248-.508.492-.508a.61.61 0 0 1 .232.062M6.512 18.147c.63.387.642 1.299.023 1.692a.998.998 0 0 1-1.394-.336c-.107-.174-.121-.232-.121-.5 0-.259.016-.33.111-.492a.955.955 0 0 1 .941-.496.836.836 0 0 1 .44.132m10.212-.085A.56.56 0 0 1 17 18.5c0 .248-.252.5-.5.5-.244 0-.5-.252-.5-.492 0-.251.248-.508.492-.508a.61.61 0 0 1 .232.062" fill="#10161F" fill-rule="evenodd"/></svg>