<svg xmlns="http://www.w3.org/2000/svg" width="24" height="24" viewBox="0 0 24 24" fill="none"><path d="M9.3 1.545c-1.509.094-2.391.262-3.117.592-1.318.601-2.129 1.712-2.443 3.351-.185.964-.191 1.132-.209 5.992-.021 5.672.009 6.452.29 7.512.219.829.572 1.451 1.154 2.033.939.939 1.964 1.304 3.965 1.413.975.053 5.128.054 6.12.001 1.282-.068 2.108-.242 2.84-.6a3.935 3.935 0 0 0 1.208-.892c.666-.701 1.007-1.441 1.207-2.615.147-.869.171-1.966.157-7.272l-.013-5-.088-.311c-.259-.913-.529-1.309-1.67-2.45-1.142-1.141-1.54-1.413-2.45-1.67-.308-.086-.346-.087-3.531-.092-1.771-.002-3.31.001-3.42.008m6.477 2.031c.45.126.602.242 1.504 1.143.91.91 1.018 1.055 1.148 1.525.066.239.071.595.069 5.236-.002 5.241-.02 5.903-.182 6.7-.089.435-.235.84-.382 1.06a2.716 2.716 0 0 1-.9.798c-.637.319-1.158.388-3.344.446-1.792.047-4.726-.001-5.41-.088-.769-.099-1.351-.306-1.705-.607-.459-.39-.678-.748-.835-1.369-.145-.57-.179-.975-.225-2.68-.051-1.876-.02-7.931.044-8.74.135-1.693.465-2.474 1.236-2.93.218-.129.672-.285 1.065-.366.817-.169 2.149-.22 5.4-.205 1.98.01 2.311.02 2.517.077m-.499 5.542c-.164.05-.275.118-.668.408a22.814 22.814 0 0 0-3.576 3.334l-.441.52-.282-.274c-.527-.512-1.249-1.04-1.566-1.144a1.12 1.12 0 0 0-.711.054c-.38.181-.573.526-.547.98.021.377.136.535.653.901.51.36 1.13.98 1.449 1.449.301.441.427.553.72.638a.95.95 0 0 0 .995-.27c.068-.074.264-.32.434-.547a20.378 20.378 0 0 1 4.022-4.005c.48-.359.558-.436.665-.662a.985.985 0 0 0-.602-1.361c-.213-.064-.383-.07-.545-.021" fill="#10161F" fill-rule="evenodd"/></svg>