<svg xmlns="http://www.w3.org/2000/svg" width="24" height="24" viewBox="0 0 24 24" fill="none"><path d="M18.24 3.106c-1.06.135-1.761.296-5.82 1.337-4 1.027-5.141 1.334-6.032 1.623-2.111.686-3.077 1.403-3.494 2.594-.102.291-.112.371-.113.88-.001.476.013.605.092.86.319 1.026.988 1.905 2.881 3.783l1.134 1.126-.054.235c-.039.17-.054.574-.054 1.436 0 1.137.005 1.215.091 1.49a1.45 1.45 0 0 0 1.146 1.007c.562.097.985-.087 1.634-.714l.432-.416.095.076c.052.042.288.248.523.457 1.435 1.272 2.392 1.76 3.45 1.76 1.076 0 1.958-.528 2.669-1.598.315-.473.72-1.283 1.114-2.224.278-.664 2.284-5.814 2.834-7.278.896-2.381 1.136-3.534.928-4.472a2.545 2.545 0 0 0-1.836-1.891c-.237-.064-1.309-.111-1.62-.071m-.27 3.46a.39.39 0 0 1 .07.214c0 .12-.316.445-3.995 4.096a591.557 591.557 0 0 1-4.097 4.045c-.25.196-.63.248-.969.132-.229-.077-.841-.64-1.008-.925-.228-.388-.147-.944.181-1.257.136-.129 9.351-6.348 9.488-6.402.096-.039.254.008.33.097" fill="#10161F" fill-rule="evenodd"/></svg>