<svg xmlns="http://www.w3.org/2000/svg" width="24" height="24" viewBox="0 0 24 24" fill="none"><path d="m8.64 2.425-.454.078c-.448.074-.746.214-1.031.486-.648.616-.717 1.624-.167 2.422.057.082.713.71 1.457 1.394 1.076.989 1.362 1.273 1.391 1.381.029.102.014.254-.061.624a4.643 4.643 0 0 1-.147.585c-.087.178-.233.243-.792.353-.467.092-.561.1-.666.056-.075-.031-.599-.569-1.352-1.388C5.969 7.493 5.515 7.03 5.35 6.92c-1.057-.706-2.476-.197-2.784 1-.205.799-.207 2.004-.006 2.929a7.033 7.033 0 0 0 3.683 4.775 6.929 6.929 0 0 0 3.654.733c.478-.036 1.193-.157 1.406-.238a.586.586 0 0 1 .137-.039c.019 0 .92 1.045 2.001 2.323 1.518 1.792 2.036 2.377 2.269 2.562.77.612 1.791.911 2.73.798.932-.112 1.668-.463 2.287-1.09.741-.751 1.1-1.682 1.061-2.753-.033-.937-.303-1.643-.898-2.351-.098-.116-1.213-1.087-2.478-2.157-2.25-1.905-2.3-1.949-2.277-2.069.012-.068.069-.339.125-.603.375-1.753-.016-3.708-1.05-5.26-.43-.645-1.253-1.468-1.89-1.89a7.287 7.287 0 0 0-2.56-1.072c-.331-.069-.59-.09-1.22-.1-.44-.006-.845-.003-.9.007m1.64 2.041c1.764.308 3.288 1.613 3.85 3.294.21.629.25.893.249 1.64-.002.65-.011.738-.13 1.225-.22.898-.149 1.421.279 2.046.071.103 1.035.948 2.427 2.126 1.27 1.075 2.367 2.02 2.437 2.1.271.309.417.715.413 1.151-.008.829-.527 1.477-1.355 1.693a1.719 1.719 0 0 1-1.505-.347c-.084-.07-1.032-1.165-2.105-2.433-1.073-1.267-2.012-2.351-2.086-2.406-.589-.445-1.217-.547-2.074-.336-.648.159-1.162.204-1.696.148-1.055-.11-1.894-.446-2.706-1.086-1.128-.888-1.796-2.216-1.864-3.701-.013-.286-.008-.577.011-.647l.035-.127 1.036 1.127c.57.62 1.135 1.212 1.256 1.315.255.218.691.441 1.008.516.533.126 1.639-.009 2.36-.288.532-.205.968-.597 1.262-1.132.164-.298.215-.47.358-1.194.108-.549.127-1.017.056-1.358-.063-.299-.317-.815-.522-1.059-.096-.114-.678-.67-1.294-1.235a41.618 41.618 0 0 1-1.133-1.061c-.032-.084.896-.065 1.433.029" fill="#10161F" fill-rule="evenodd"/></svg>