<svg xmlns="http://www.w3.org/2000/svg" width="24" height="24" viewBox="0 0 24 24" fill="none"><path d="M16.643 3.069C16.291 3.193 16 3.614 16 4c0 .396.291.808.66.934.107.036.31.066.451.066.341 0 .98.133 1.358.283a4.013 4.013 0 0 1 2.248 2.248c.15.378.283 1.017.283 1.358 0 .348.096.609.299.812.64.64 1.701.172 1.701-.75 0-.107-.019-.369-.042-.583a5.986 5.986 0 0 0-5.326-5.326c-.516-.056-.775-.049-.989.027m-6.176 1.972c-.819.129-1.58.451-2.64 1.115-1.573.985-3.025 2.34-4.058 3.789-1.444 2.024-2.048 4.188-1.629 5.84.382 1.503 1.606 2.89 3.381 3.83 3.475 1.839 8.475 1.838 11.959-.001 1.705-.901 2.924-2.241 3.338-3.671a4.603 4.603 0 0 0 .167-1.458c-.096-1.255-.765-2.226-2.067-2.998l-.383-.227.057-.18c.031-.099.065-.423.076-.72.023-.624-.03-.928-.233-1.33-.665-1.318-2.113-1.794-4.041-1.327a12.27 12.27 0 0 1-.417.097c-.009 0-.017-.064-.017-.142 0-.255-.124-.711-.284-1.046a2.79 2.79 0 0 0-1.815-1.501c-.327-.088-1.051-.124-1.394-.07m.921 2.019c.56.167.747.84.455 1.64-.072.198-.15.441-.173.541-.137.59.33 1.171.946 1.175.211.002.303-.026.684-.202 1.055-.488 1.697-.669 2.38-.672.391-.002.488.011.649.085.466.216.504.813.092 1.473-.23.369-.288.597-.224.88.055.247.229.508.414.621.071.044.255.127.409.185.687.26 1.274.618 1.581.963.463.52.519 1.204.163 1.988-.724 1.597-2.985 2.831-5.844 3.19-.552.07-2.288.07-2.84 0-3.2-.402-5.618-1.896-6.025-3.722-.121-.545-.009-1.388.291-2.184.265-.708.812-1.638 1.398-2.381.425-.539 1.61-1.693 2.173-2.115 1.634-1.227 2.723-1.687 3.471-1.465" fill="#10161F" fill-rule="evenodd"/></svg>